#!OML:ASF H:\Male1\Project 1\Capture day 1\Session 1\Male1.ASF
:FULLY-SPECIFIED
:DEGREES
162
root -4.08962 13.7488 5.3435 158.918 -80.9698 -136.445
lowerback 37.6827 3.51876 -3.36923
upperback 19.3399 0.00835409 -3.6015
thorax 2.66203 -1.12645 -2.09521
lowerneck 2.17774 6.70439 8.65588
upperneck -8.62527 8.98267 -6.88213
head -2.43989 4.44697 -4.01671
rclavicle -5.56597e-014 -7.15625e-015
rhumerus -24.2676 13.4128 -89.3669
rradius 57.3391
rwrist -31.6108
rhand -16.3846 2.81297
rfingers 7.12502
rthumb 9.82909 -26.9376
lclavicle -5.56597e-014 -7.15625e-015
lhumerus 49.3693 -16.2123 55.471
lradius 27.4549
lwrist -10.091
lhand -26.431 23.1597
lfingers 7.12502
lthumb 0.129426 53.1394
rfemur -67.2279 -3.71059 39.313
rtibia 56.5931
rfoot -17.4959 -17.454
rtoes -13.3366
lfemur -70.1701 6.8779 -16.3023
ltibia 66.6082
lfoot -17.2602 7.88158
ltoes -10.064
163
root -4.1882 13.6773 5.35047 159.483 -80.6972 -135.693
lowerback 38.4926 3.51871 -3.25284
upperback 19.2576 -0.0415252 -3.6703
thorax 2.32092 -1.1323 -2.21214
lowerneck 2.29759 6.78996 8.4091
upperneck -9.33686 9.10121 -6.67331
head -2.71357 4.49546 -3.93728
rclavicle -3.18055e-015 2.76311e-014
rhumerus -24.2977 13.7419 -89.437
rradius 57.2516
rwrist -31.8773
rhand -16.2577 2.50629
rfingers 7.12502
rthumb 9.95157 -27.2385
lclavicle -3.18055e-015 2.76311e-014
lhumerus 51.3071 -15.7582 54.4005
lradius 27.2578
lwrist -11.3367
lhand -26.5602 23.7759
lfingers 7.12502
lthumb 0.00466098 53.7557
rfemur -69.0194 -3.4635 39.8635
rtibia 57.7737
rfoot -17.4561 -17.3351
rtoes -14.1061
lfemur -72.1273 7.0784 -16.2504
ltibia 68.1858
lfoot -18.1133 8.02596
ltoes -10.3844
164
root -4.2848 13.6054 5.35524 159.533 -80.3174 -134.543
lowerback 39.4722 3.47215 -3.01847
upperback 19.1463 -0.130264 -3.82678
thorax 1.90113 -1.14395 -2.46904
lowerneck 2.40819 6.90049 8.23632
upperneck -9.99231 9.26306 -6.4174
head -2.96464 4.56034 -3.85419
rclavicle 1.74931e-014 2.5842e-015
rhumerus -24.2339 13.9946 -89.644
rradius 57.0852
rwrist -32.087
rhand -16.2169 2.27583
rfingers 7.12502
rthumb 9.99092 -27.467
lclavicle 1.74931e-014 2.5842e-015
lhumerus 53.1021 -15.1615 53.34
lradius 27.0073
lwrist -12.7261
lhand -26.6728 24.5072
lfingers 7.12502
lthumb -0.104061 54.4869
rfemur -70.655 -3.1547 40.498
rtibia 59.0051
rfoot -17.6366 -17.0283
rtoes -15.0167
lfemur -73.8889 7.31105 -16.01
ltibia 69.7471
lfoot -19.0706 8.20898
ltoes -10.8376
165
root -4.38011 13.5363 5.35855 159.161 -79.8356 -133.065
lowerback 40.6746 3.37918 -2.69222
upperback 18.9098 -0.266628 -4.05771
thorax 1.44685 -1.16572 -2.85881
lowerneck 2.55672 7.01336 8.23297
upperneck -10.6442 9.43875 -6.22292
head -3.21346 4.62667 -3.82697
rclavicle 3.81667e-014 4.28878e-014
rhumerus -24.0285 14.1239 -89.9836
rradius 56.8271
rwrist -32.2248
rhand -16.2176 2.16697
rfingers 7.12502
rthumb 9.9902 -27.5759
lclavicle 3.81667e-014 4.28878e-014
lhumerus 54.7941 -14.4522 52.0816
lradius 26.7755
lwrist -14.0668
lhand -26.8357 25.3075
lfingers 7.12502
lthumb -0.261429 55.2871
rfemur -72.1005 -2.85489 41.2924
rtibia 60.1703
rfoot -17.9798 -16.6108
rtoes -15.534
lfemur -75.4627 7.57989 -15.5984
ltibia 71.2608
lfoot -20.0824 8.43909
ltoes -11.3513
166
root -4.47416 13.471 5.3612 158.549 -79.2747 -131.443
lowerback 41.8139 3.26404 -2.32432
upperback 18.8042 -0.414018 -4.33725
thorax 0.993776 -1.1948 -3.29128
lowerneck 2.69671 7.11042 8.44888
upperneck -11.5804 9.54995 -6.45604
head -3.16245 4.68961 -3.60012
rclavicle 6.52014e-014 3.44798e-014
rhumerus -23.7016 14.1477 -90.3743
rradius 56.5268
rwrist -32.3204
rhand -16.2538 2.18374
rfingers 7.12502
rthumb 9.95529 -27.5608
lclavicle 6.52014e-014 3.44798e-014
lhumerus 56.3896 -13.6267 50.6965
lradius 26.5506
lwrist -15.3813
lhand -26.9728 26.1157
lfingers 7.12502
lthumb -0.393773 56.095
rfemur -73.3117 -2.62488 42.2516
rtibia 61.2354
rfoot -18.4482 -16.105
rtoes -15.795
lfemur -76.8627 7.8786 -15.0614
ltibia 72.7123
lfoot -21.087 8.69422
ltoes -11.7443
167
root -4.56655 13.4097 5.36343 158.008 -78.67 -129.967
lowerback 42.9656 3.20775 -2.05696
upperback 18.6978 -0.522484 -4.56137
thorax 0.550951 -1.21856 -3.62535
lowerneck 2.95704 7.16504 8.86727
upperneck -12.2574 9.64915 -6.6576
head -3.37035 4.72006 -3.76075
rclavicle 6.04305e-014 2.98177e-015
rhumerus -23.3032 14.0416 -90.6918
rradius 56.2422
rwrist -32.4092
rhand -16.2357 2.21892
rfingers 7.12502
rthumb 9.97276 -27.5248
lclavicle 6.04305e-014 2.98177e-015
lhumerus 57.8782 -12.7084 49.3915
lradius 26.2831
lwrist -16.7036
lhand -27.1927 26.8095
lfingers 7.12502
lthumb -0.606229 56.7884
rfemur -74.3472 -2.43289 43.2662
rtibia 62.2163
rfoot -18.956 -15.5469
rtoes -15.9141
lfemur -78.1335 8.20421 -14.48
ltibia 74.0934
lfoot -22.0293 8.93072
ltoes -11.8257
168
root -4.65616 13.3498 5.3661 157.888 -78.0657 -128.912
lowerback 44.0106 3.25301 -1.99518
upperback 18.5897 -0.566635 -4.6755
thorax 0.15395 -1.23294 -3.75986
lowerneck 3.25584 7.19399 9.34364
upperneck -12.9242 9.70838 -7.01613
head -3.57235 4.73674 -3.9797
rclavicle -1.20861e-013 -9.08446e-014
rhumerus -22.8893 13.8631 -90.8536
rradius 56.0383
rwrist -32.4924
rhand -16.1857 2.22601
rfingers 7.12502
rthumb 10.021 -27.5154
lclavicle -1.20861e-013 -9.08446e-014
lhumerus 59.2474 -11.6651 48.4062
lradius 25.925
lwrist -18.1743
lhand -27.5069 27.3313
lfingers 7.12502
lthumb -0.909634 57.3091
rfemur -75.362 -2.21772 44.2245
rtibia 63.1567
rfoot -19.4067 -14.9758
rtoes -16.0347
lfemur -79.3938 8.5466 -13.9579
ltibia 75.4108
lfoot -22.8714 9.12648
ltoes -11.5502
169
root -4.74265 13.2899 5.36969 158.28 -77.4866 -128.329
lowerback 44.8757 3.38476 -2.15017
upperback 18.492 -0.568052 -4.68558
thorax -0.168375 -1.247 -3.68986
lowerneck 3.50393 7.23327 9.72541
upperneck -13.5245 9.76751 -7.42986
head -3.74661 4.76233 -4.1976
rclavicle -5.40694e-014 5.50634e-014
rhumerus -22.4918 13.7196 -90.8562
rradius 55.9477
rwrist -32.6008
rhand -16.1754 2.29873
rfingers 7.12502
rthumb 10.0309 -27.4422
lclavicle -5.40694e-014 5.50634e-014
lhumerus 60.4958 -10.467 47.7479
lradius 25.4928
lwrist -19.7608
lhand -27.928 27.6788
lfingers 7.12502
lthumb -1.31633 57.6544
rfemur -76.437 -1.93436 45.0691
rtibia 64.0871
rfoot -19.7593 -14.4653
rtoes -16.2645
lfemur -80.7004 8.90963 -13.5541
ltibia 76.6666
lfoot -23.6229 9.26824
ltoes -11.014
170
root -4.8269 13.2311 5.37545 159.11 -76.9581 -128.177
lowerback 45.6055 3.59864 -2.50878
upperback 18.3938 -0.53287 -4.58825
thorax -0.443534 -1.26206 -3.41712
lowerneck 3.77339 7.32063 9.86458
upperneck -14.1516 9.88909 -7.73526
head -3.9449 4.82447 -4.34994
rclavicle 9.06458e-014 -1.59028e-015
rhumerus -22.1852 13.644 -90.7075
rradius 56.0343
rwrist -32.752
rhand -16.2574 2.388
rfingers 7.12502
rthumb 9.95185 -27.3568
lclavicle 9.06458e-014 -1.59028e-015
lhumerus 61.5951 -9.14474 47.5563
lradius 25.0014
lwrist -21.5427
lhand -28.4482 27.8922
lfingers 7.12502
lthumb -1.81879 57.8642
rfemur -77.5452 -1.58641 45.7472
rtibia 65.0143
rfoot -20.0476 -14.0592
rtoes -16.5827
lfemur -81.9989 9.27095 -13.2986
ltibia 77.8455
lfoot -24.3329 9.36381
ltoes -10.4026
